<svg width="50" height="50" viewBox="0 0 50 50" fill="none" xmlns="http://www.w3.org/2000/svg">
<circle cx="25" cy="25.0001" r="22.5157" transform="rotate(-2.75052 25 25.0001)" fill="#142F46" stroke="#FFFDFD" stroke-width="3"/>
<path d="M31.5781 32.2932C30.8033 32.3029 30.0336 32.1663 29.3094 31.8908C28.6605 31.6385 28.0742 31.2482 27.5911 30.7469C27.1152 30.2346 26.7476 29.6315 26.5105 28.9737C26.2501 28.246 26.1211 27.4778 26.1296 26.705C26.124 25.9454 26.2568 25.1912 26.5212 24.4792C26.7678 23.8152 27.1473 23.2086 27.6365 22.6964C28.1271 22.1906 28.7131 21.7872 29.3607 21.5095C30.0622 21.2128 30.8177 21.0652 31.5793 21.0761C32.3978 21.0586 33.2084 21.2388 33.9424 21.6015C34.5975 21.9375 35.1657 22.4211 35.6022 23.0141C36.0428 23.6195 36.3604 24.3061 36.5371 25.0332C36.7306 25.807 36.7998 26.6058 36.7413 27.4011H29.0622C29.0312 28.1569 29.2903 28.8937 29.7858 29.4657C30.3062 29.9221 30.9865 30.1532 31.6772 30.1081C32.2194 30.12 32.7519 29.9648 33.2033 29.6627C33.5615 29.4442 33.8361 29.1134 33.983 28.7206H36.5562C36.2646 29.8295 35.5937 30.8012 34.66 31.4669C33.7359 32.0385 32.6642 32.3258 31.5781 32.2932ZM31.4957 23.2851C31.0945 23.2701 30.6956 23.352 30.3327 23.5239C30.0485 23.6672 29.7966 23.8666 29.5924 24.109C29.4133 24.3299 29.2783 24.5855 29.2007 24.8589C29.1318 25.0872 29.0874 25.3222 29.0682 25.5598H33.823C33.7887 24.9406 33.5526 24.3497 33.1507 23.8774C32.9307 23.6697 32.6701 23.5099 32.3853 23.4079C32.1004 23.306 31.7975 23.2642 31.4957 23.2851ZM19.9968 32.0162H12.8682V17.3231H19.7938C20.4354 17.3175 21.0758 17.3795 21.7043 17.5082C22.2369 17.6121 22.7432 17.8186 23.1981 18.1148C23.6088 18.3989 23.9381 18.7854 24.1534 19.236C24.3922 19.7781 24.5056 20.3668 24.4877 20.9591C24.5137 21.6141 24.34 22.2617 23.9898 22.8159C23.6077 23.3448 23.0883 23.7616 22.49 24.0231C23.3032 24.2261 24.0184 24.712 24.508 25.3927C24.9618 26.0936 25.1922 26.9163 25.1671 27.751C25.1845 28.4187 25.0377 29.0804 24.7397 29.6782C24.465 30.2084 24.0662 30.6645 23.5766 31.0072C23.0696 31.36 22.5034 31.6188 21.9049 31.7714C21.2802 31.9355 20.6368 32.0182 19.9908 32.0174L19.9968 32.0162ZM16.1041 25.4691V29.517H19.555C19.8595 29.5206 20.164 29.4895 20.4625 29.4251C20.7359 29.3725 20.995 29.2662 21.2267 29.1122C21.4497 28.9656 21.6307 28.7636 21.7521 28.5259C21.893 28.2274 21.9587 27.9002 21.9455 27.5707C21.9741 27.2693 21.9312 26.9654 21.8204 26.6837C21.7096 26.402 21.5341 26.1503 21.3079 25.9491C20.813 25.6084 20.2195 25.4405 19.6195 25.4715L16.1041 25.4691ZM16.1041 19.8271V23.26H19.3783C19.8846 23.2803 20.3837 23.1359 20.8016 22.8481C20.9955 22.6871 21.1472 22.4813 21.2438 22.2485C21.3403 22.0157 21.3787 21.7629 21.3557 21.5119C21.3657 21.2195 21.3034 20.9291 21.1742 20.6665C21.0574 20.4543 20.8853 20.2777 20.6762 20.1555C20.456 20.0249 20.2128 19.9377 19.9598 19.8987C19.6842 19.8471 19.4043 19.8227 19.1239 19.8259L16.1041 19.8271ZM34.4224 19.7602H28.464V18.3094H34.4224V19.7602Z" fill="#FFCBF0"/>
</svg>
