<svg width="49" height="49" viewBox="0 0 49 49" fill="none" xmlns="http://www.w3.org/2000/svg">
<path d="M25.7916 46.773C38.0646 46.1833 47.5521 35.8064 46.9647 23.5795C46.3772 11.3525 35.9387 1.9329 23.6657 2.52253C11.3927 3.11215 1.90528 13.489 2.4927 25.716C3.08011 37.943 13.5186 47.3626 25.7916 46.773Z" fill="#142F46" stroke="#FFFDFD" stroke-width="3"/>
<path fill-rule="evenodd" clip-rule="evenodd" d="M19.9142 44.7648C19.7237 44.5193 19.7237 42.3317 19.9142 38.2023C17.8739 38.2727 16.5848 38.1313 16.047 37.7782C15.2401 37.2485 14.4325 35.6148 13.7158 34.4635C12.9991 33.3122 11.4086 33.1302 10.7663 32.8728C10.124 32.6154 9.96271 31.5662 12.5362 32.3597C15.1095 33.1532 15.2351 35.3139 16.047 35.8192C16.8587 36.3244 18.7997 36.1033 19.6794 35.6986C20.5592 35.2938 20.4944 33.7869 20.6513 33.1899C20.8496 32.6326 20.1506 32.509 20.1352 32.5045C19.2763 32.5045 14.7644 31.5246 13.5251 27.1618C12.2858 22.799 13.8822 19.9474 14.7338 18.7215C15.3017 17.9043 15.2515 16.1626 14.5832 13.4962C17.0093 13.1866 18.8816 13.9491 20.1999 15.7839C20.2012 15.7944 21.9283 14.7583 24.658 14.7583C27.3875 14.7583 28.3559 15.6022 29.1032 15.7839C29.8506 15.9655 30.4483 12.5722 35.0638 13.4962C34.1002 15.3874 33.2932 17.7506 33.9091 18.7215C34.5251 19.6925 36.9425 22.7801 35.4575 27.1618C34.4676 30.083 32.5216 31.8639 29.6195 32.5045C29.2867 32.6105 29.1203 32.7816 29.1203 33.0176C29.1203 33.3717 29.5702 33.4103 30.2183 35.0691C30.6505 36.1748 30.6817 39.3332 30.312 44.544C29.3754 44.7821 28.6469 44.9419 28.1262 45.0236C27.2031 45.1684 26.2008 45.2496 25.216 45.281C24.2312 45.3124 23.8892 45.3088 22.5276 45.1823C21.62 45.0979 20.7489 44.9588 19.9142 44.7648Z" fill="#FFCBF0"/>
</svg>
