<svg width="49" height="49" viewBox="0 0 49 49" fill="none" xmlns="http://www.w3.org/2000/svg">
<circle cx="24.2592" cy="24.147" r="22.5" transform="rotate(3.22183 24.2592 24.147)" fill="#142F46" stroke="#FFFDFD" stroke-width="3"/>
<path d="M17.9388 12.6714C17.655 12.6712 17.3739 12.7269 17.1116 12.8353C16.8493 12.9438 16.6109 13.1028 16.4101 13.3034C16.2093 13.504 16.05 13.7422 15.9412 14.0044C15.8325 14.2665 15.7765 14.5476 15.7764 14.8314C15.7764 16.0259 16.7443 17.0159 17.9364 17.0159C19.1301 17.0159 20.0988 16.0259 20.0988 14.833C20.099 14.5492 20.0433 14.2682 19.9349 14.0059C19.8264 13.7437 19.6673 13.5054 19.4668 13.3046C19.2662 13.1039 19.028 12.9446 18.7658 12.836C18.5036 12.7273 18.2226 12.6714 17.9388 12.6714ZM28.4868 18.3987C26.6713 18.3987 25.633 19.3478 25.1339 20.2919L25.0815 20.2919L25.0815 18.6531L21.5036 18.6531L21.5036 30.6714L25.2321 30.6714L25.2321 24.7224C25.2321 23.1548 25.3499 21.6395 27.2898 21.6395C29.2019 21.6395 29.2297 23.4272 29.2297 24.8214L29.2297 30.6714L32.9582 30.6714L32.9582 24.0703C32.9582 20.8401 32.2635 18.3987 28.4868 18.3987ZM16.0734 18.6523L16.0734 30.6714L19.8043 30.6714L19.8043 18.6523L16.0734 18.6523Z" fill="#FFCBF0"/>
</svg>
