<svg width="265" height="192" viewBox="0 0 265 192" fill="none" xmlns="http://www.w3.org/2000/svg">
<circle cx="126.333" cy="96" r="96" fill="#142F46"/>
<path d="M128.555 182.222C178.2 182.222 218.444 141.977 218.444 92.3332C218.444 42.689 178.2 2.44434 128.555 2.44434C78.9111 2.44434 38.6665 42.689 38.6665 92.3332C38.6665 141.977 78.9111 182.222 128.555 182.222Z" stroke="#FCFEFF" stroke-width="2" stroke-miterlimit="10"/>
<path d="M128.555 187.778C178.2 187.778 218.444 147.533 218.444 97.8889C218.444 48.2446 178.2 8 128.555 8C78.9111 8 38.6665 48.2446 38.6665 97.8889C38.6665 147.533 78.9111 187.778 128.555 187.778Z" stroke="#FCFEFF" stroke-width="2" stroke-miterlimit="10"/>
<path d="M122.555 187.778C172.2 187.778 212.444 147.533 212.444 97.8889C212.444 48.2446 172.2 8 122.555 8C72.9111 8 32.6665 48.2446 32.6665 97.8889C32.6665 147.533 72.9111 187.778 122.555 187.778Z" stroke="#FCFEFF" stroke-width="2" stroke-miterlimit="10"/>
<path d="M80.4935 64.0136C80.8357 63.1025 81.2142 62.1958 81.629 61.2936C82.0424 60.3892 82.449 59.1181 82.8468 58.3625C83.589 56.9314 84.4149 55.5453 85.3202 54.2114C86.1791 52.9764 87.2172 51.8762 88.4001 50.947C88.6779 50.9225 88.9602 50.767 89.4024 50.7092C89.9936 50.6523 90.5889 50.6523 91.1802 50.7092C91.5714 50.7538 91.9523 50.8643 92.3068 51.0358C92.529 51.1714 92.9579 51.5981 92.8824 51.947C91.4024 53.5981 90.2913 54.487 88.9957 56.787C88.4401 57.7714 86.7357 60.9314 85.7779 63.7847L85.0801 65.8203C84.5053 67.3018 84.0061 68.7677 83.5824 70.2181C83.1587 71.6684 82.815 73.0618 82.5513 74.3981C82.3009 75.6412 82.1133 76.8961 81.989 78.1581C81.8818 79.1999 81.8661 80.2491 81.9424 81.2936C82.0535 82.5958 82.572 83.2818 83.4979 83.3514C84.3118 83.1698 85.0975 82.879 85.8335 82.487C86.5341 82.1157 87.174 81.6399 87.7313 81.0758C87.9224 81.327 88.1024 81.5358 88.0824 81.7136C88.0446 82.027 87.6779 82.3247 87.3046 82.7114C86.9313 83.0981 86.5202 83.4803 86.0757 83.8581C85.6629 84.2116 85.2271 84.5375 84.7713 84.8336C84.475 85.0432 84.1482 85.2058 83.8024 85.3158C83.1046 85.3736 82.3957 85.5092 81.6757 85.2736C80.9709 85.0459 80.2986 84.7277 79.6757 84.327C79.0668 83.9314 78.5646 83.2558 78.149 82.7403C77.7704 82.2952 77.5329 81.7475 77.4668 81.167C77.4086 80.2658 77.4227 79.3614 77.509 78.4625C77.5979 77.3692 77.5335 76.1714 77.7579 74.8714C77.9824 73.5714 78.2602 72.2047 78.5868 70.7803C78.9135 69.3558 79.2824 67.9381 79.6979 66.5336L80.4935 64.0136Z" fill="white"/>
<path d="M101.847 83.6094C101.349 83.1953 100.992 82.6359 100.827 82.0094C100.67 81.4762 100.583 80.925 100.567 80.3694C100.557 79.8818 100.624 79.3956 100.767 78.9294C100.661 78.9294 100.421 79.142 100.049 79.5671C99.6776 79.9923 99.2702 80.4975 98.8272 81.0827C98.3828 81.6679 97.9502 82.2397 97.5294 82.7983C97.1087 83.3568 96.7887 83.7716 96.5694 84.0427C96.2741 84.3685 95.9457 84.6627 95.5894 84.9205C95.3711 85.0912 95.1188 85.2132 94.8494 85.2783C94.3962 85.2733 93.9465 85.1983 93.5161 85.056C93.0497 84.9091 92.6055 84.699 92.1961 84.4316C91.7876 84.1689 91.4231 83.8434 91.1161 83.4671C90.8103 83.0927 90.5978 82.6509 90.4961 82.1783C90.4961 81.4375 90.5168 80.8242 90.5583 80.3383C90.6042 79.8139 90.6904 79.2938 90.8161 78.7827C91.1039 77.6169 91.4578 76.4683 91.8761 75.3427C92.3466 74.0547 92.8874 72.7936 93.4961 71.5649C94.0931 70.3537 94.7826 69.1902 95.5583 68.0849C96.2165 67.109 97.0338 66.2504 97.9761 65.5449C98.2571 65.5478 98.5376 65.5678 98.8161 65.6049C99.1496 65.6487 99.4784 65.7231 99.7983 65.8271C100.126 65.9322 100.446 66.0591 100.756 66.2071C101.053 66.3466 101.319 66.5438 101.538 66.7871C101.298 67.0538 100.691 67.9471 99.7161 69.4671C98.7413 70.9871 97.6546 73.1738 96.4561 76.0271C96.3228 76.3234 96.1628 76.7501 95.9761 77.3071C95.7894 77.8642 95.5983 78.4449 95.4028 79.0494C95.2146 79.6627 95.0605 80.2627 94.9405 80.8494C94.836 81.3092 94.7758 81.778 94.7605 82.2494C94.7498 82.4155 94.7844 82.5814 94.8605 82.7294C94.9116 82.8163 94.9728 82.8968 95.0428 82.9694C95.4413 82.8094 95.9472 82.3694 96.5605 81.6494C97.1739 80.9294 98.0272 79.8227 99.1205 78.3294C99.3872 77.956 99.7005 77.5294 100.061 77.0494C100.421 76.5694 100.791 76.056 101.172 75.5094C101.542 74.9627 101.895 74.396 102.229 73.8094C102.551 73.2463 102.826 72.6576 103.052 72.0494C103.157 71.7294 103.296 71.3494 103.469 70.9094C103.657 70.438 103.871 69.9773 104.109 69.5294C104.379 69.0269 104.676 68.5395 104.998 68.0694C105.339 67.5665 105.736 67.1036 106.181 66.6894C106.554 66.6933 106.926 66.7335 107.292 66.8094C107.677 66.8859 108.057 66.9861 108.429 67.1094C108.754 67.2138 109.069 67.3477 109.369 67.5094C109.596 67.6247 109.799 67.7806 109.969 67.9694C109.489 69.1427 108.956 70.3027 108.369 71.4494C107.783 72.596 107.238 73.7227 106.736 74.8294C106.243 75.9022 105.815 77.0043 105.456 78.1294C105.12 79.163 104.945 80.2424 104.938 81.3294C104.931 81.8196 104.977 82.3092 105.076 82.7894C105.152 83.1426 105.252 83.4901 105.376 83.8294C105.464 84.0679 105.565 84.3015 105.678 84.5294C105.759 84.6772 105.806 84.8411 105.816 85.0094C105.816 85.036 105.789 85.076 105.736 85.1294C105.726 85.141 105.714 85.1505 105.7 85.1574C105.686 85.1643 105.671 85.1684 105.656 85.1694C105.413 85.1604 105.171 85.1201 104.938 85.0494C104.604 84.956 104.276 84.8425 103.956 84.7094C103.596 84.5612 103.236 84.3946 102.876 84.2094C102.523 84.028 102.179 83.8277 101.847 83.6094Z" fill="white"/>
<path d="M0.513644 56.4871C-2.69302 55.1138 9.18031 68.0426 34.2914 70.4871C65.1803 73.496 118.638 57.7604 112.514 58.7093C46.5136 68.9315 25.4025 67.1538 0.513644 56.4871Z" fill="white"/>
<path d="M87.0447 131.867C86.6314 131.748 86.3943 131.304 86.3336 130.534C86.2037 130.084 86.1218 129.622 86.0891 129.156C86.0447 128.623 86.0225 128.015 86.0225 127.334C86.0502 126.474 86.1544 125.619 86.3336 124.778C86.5425 123.697 86.8314 122.474 87.2002 121.111C87.5691 119.748 88.021 118.274 88.5558 116.689C89.0891 115.104 89.6817 113.497 90.3336 111.867C91.1336 109.823 91.8299 108.052 92.4225 106.556C93.0151 105.06 93.5113 103.763 93.9113 102.667C94.3113 101.572 94.6373 100.668 94.8891 99.9559C95.141 99.2433 95.341 98.6358 95.4891 98.1336C95.6435 97.6947 95.8215 97.2644 96.0225 96.8447C96.2706 96.3197 96.5457 95.8079 96.8469 95.3114C97.1558 94.7936 97.4758 94.3047 97.8002 93.8447C98.0577 93.4653 98.3558 93.1151 98.6891 92.8003C99.6975 92.9406 100.684 93.2087 101.625 93.5981C102.542 93.9833 103.104 94.3536 103.311 94.7092C102.77 95.253 102.293 95.8569 101.889 96.5092C101.356 97.324 100.837 98.2129 100.334 99.1758C99.8299 100.139 99.3714 101.125 98.958 102.134C98.5916 103.002 98.2792 103.893 98.0225 104.8C98.3691 104.225 98.756 103.675 99.1802 103.154C99.6528 102.561 100.378 101.746 101.356 100.709C102.282 99.7265 103.318 98.854 104.445 98.1092C105.409 97.5025 106.245 97.1981 106.958 97.1981C108.082 97.1981 109.008 97.5092 109.736 98.1314C110.086 98.4234 110.366 98.791 110.555 99.2067C110.743 99.6223 110.834 100.075 110.822 100.531C110.819 102.687 110.458 104.827 109.756 106.865C109.066 108.915 108.028 110.832 106.689 112.531C106.16 113.211 105.565 113.837 104.911 114.398C104.244 114.981 103.531 115.509 102.778 115.976C102.09 116.41 101.36 116.774 100.6 117.065C99.9921 117.311 99.3449 117.446 98.6891 117.465C98.2022 117.476 97.7207 117.361 97.2914 117.131C96.9342 116.955 96.6447 116.666 96.4669 116.309C97.7311 115.539 98.8708 114.58 99.8469 113.467C101.001 112.174 102.02 110.766 102.889 109.267C103.849 107.629 104.666 105.911 105.334 104.134C106.025 102.317 106.553 100.443 106.911 98.5336C105.844 99.0907 104.825 99.7374 103.867 100.467C102.863 101.265 101.961 102.183 101.18 103.2C100.112 104.505 99.2669 105.557 98.6447 106.356C98.0225 107.156 97.5136 107.838 97.1114 108.4C96.7492 108.903 96.4224 109.43 96.1336 109.978C95.8832 110.467 95.6091 111.067 95.3114 111.778C94.898 112.728 94.4165 113.98 93.8669 115.534C93.3173 117.088 92.7551 118.828 92.1802 120.756C91.601 122.682 91.0225 124.734 90.4447 126.911C89.8669 129.089 89.3114 131.26 88.778 133.423C88.4536 133.363 88.1714 133.127 87.9336 132.711L87.4225 132.134C87.3197 132.016 87.1902 131.924 87.0447 131.867Z" fill="white"/>
<path d="M112.378 116.4C112.394 115.172 112.498 113.947 112.689 112.734C112.896 111.326 113.2 109.823 113.6 108.223C114 106.623 114.474 104.949 115.022 103.2C115.572 101.451 116.187 99.7026 116.867 97.956C117.459 96.3841 118.148 94.7989 118.933 93.2004C119.719 91.6019 120.571 90.0315 121.489 88.4893C122.408 86.9501 123.363 85.4834 124.356 84.0893C125.348 82.6952 126.348 81.4212 127.356 80.2671C127.872 80.2722 128.386 80.3318 128.889 80.4449C129.433 80.5612 129.968 80.7172 130.489 80.9115C130.985 81.0934 131.461 81.3242 131.911 81.6004C132.288 81.8269 132.639 82.0952 132.956 82.4004C130.82 84.5824 128.816 86.8903 126.956 89.3115C125.353 91.3647 123.94 93.5589 122.733 95.8671C122.172 96.993 121.661 98.0449 121.2 99.0226C120.739 100 120.317 100.971 119.933 101.934C119.548 102.897 119.2 103.86 118.889 104.823C118.578 105.786 118.289 106.8 118.022 107.867C123.711 100.608 127.933 96.9782 130.689 96.9782C131.57 97.01 132.428 97.2704 133.178 97.7338C134.088 98.2569 134.888 98.9511 135.533 99.7782C134.504 100.927 133.554 102.145 132.689 103.423C131.711 104.845 130.815 106.274 130 107.712C129.256 109.005 128.589 110.341 128 111.712C127.482 112.94 127.222 113.851 127.222 114.445C127.2 114.654 127.247 114.865 127.356 115.045C127.437 115.108 127.53 115.155 127.629 115.181C127.728 115.208 127.832 115.215 127.933 115.2C128.298 115.215 128.661 115.155 129 115.023C129.155 114.942 129.319 114.883 129.489 114.845C129.594 114.999 129.683 115.162 129.756 115.334C129.782 115.405 129.797 115.48 129.8 115.556C129.8 115.674 129.622 115.845 129.267 116.067C128.86 116.317 128.436 116.539 128 116.734C127.511 116.956 127.03 117.156 126.556 117.334C126.217 117.48 125.857 117.57 125.489 117.6C125.177 117.596 124.871 117.512 124.6 117.356C124.303 117.192 124.039 116.973 123.822 116.712C123.6 116.445 123.42 116.145 123.289 115.823C123.156 115.498 123.088 115.151 123.089 114.8C123.13 114.128 123.257 113.463 123.467 112.823C123.717 111.95 124.065 110.928 124.511 109.756C124.957 108.584 125.491 107.303 126.111 105.912C126.733 104.519 127.4 103.097 128.111 101.645C128.115 101.621 128.112 101.596 128.104 101.573C128.097 101.55 128.084 101.529 128.067 101.512C128.049 101.495 128.028 101.482 128.005 101.474C127.982 101.466 127.958 101.464 127.933 101.467C127.685 101.544 127.452 101.665 127.245 101.823C126.873 102.06 126.527 102.296 126.2 102.534C125.039 103.42 123.961 104.409 122.978 105.489C121.854 106.71 120.801 107.994 119.822 109.334C118.782 110.756 117.817 112.232 116.933 113.756C116.052 115.265 115.272 116.832 114.6 118.445C114.505 118.661 114.369 118.857 114.2 119.023C114.09 119.163 113.932 119.258 113.756 119.289C113.667 119.289 113.533 119.185 113.378 118.978C113.197 118.739 113.047 118.478 112.933 118.2C112.8 117.889 112.673 117.572 112.556 117.245C112.449 116.976 112.389 116.69 112.378 116.4Z" fill="white"/>
<path d="M150.736 99.2007C151.089 99.2096 151.44 99.2619 151.78 99.3562C152.156 99.4518 152.521 99.5859 152.869 99.7562C153.16 99.8978 153.436 100.069 153.691 100.267C153.914 100.445 154.025 100.607 154.025 100.756C153.432 102.001 152.884 103.253 152.38 104.512C151.877 105.771 151.447 106.978 151.091 108.134C150.759 109.2 150.484 110.283 150.269 111.378C150.092 112.242 149.995 113.119 149.98 114.001C149.963 114.699 150.053 115.396 150.247 116.067C150.382 116.559 150.7 116.98 151.136 117.245C150.711 117.512 150.246 117.707 149.758 117.823C149.266 117.961 148.758 118.036 148.247 118.045C146.647 118.045 145.847 116.949 145.847 114.756C145.847 113.067 146.41 110.756 147.536 107.823C146.958 109.152 146.275 110.432 145.491 111.652C144.783 112.762 143.996 113.819 143.136 114.816C142.419 115.65 141.606 116.396 140.714 117.038C140.051 117.545 139.285 117.9 138.469 118.078C137.374 118.078 136.485 117.58 135.802 116.583C135.12 115.586 134.779 114.314 134.78 112.767C134.808 110.961 135.17 109.175 135.847 107.501C136.543 105.684 137.461 103.961 138.58 102.37C139.599 100.891 140.818 99.5615 142.202 98.4184C143.508 97.3636 144.767 96.8355 145.98 96.834C146.34 96.9565 146.678 97.1367 146.98 97.3673C147.364 97.6434 147.721 97.9552 148.047 98.2984C148.37 98.6311 148.66 98.9943 148.914 99.3829C149.117 99.6667 149.253 99.9925 149.314 100.336C148.128 100.514 146.906 101.09 145.647 102.065C144.35 103.079 143.199 104.265 142.225 105.592C141.209 106.953 140.366 108.435 139.714 110.003C139.102 111.387 138.769 112.879 138.736 114.392C138.736 114.953 138.943 115.308 139.358 115.456C140.219 115.278 141.211 114.545 142.336 113.256C143.46 111.967 144.823 109.975 146.425 107.278C146.721 106.745 147.054 106.153 147.425 105.501C147.795 104.849 148.173 104.167 148.558 103.456C148.943 102.745 149.321 102.027 149.691 101.301C150.062 100.575 150.41 99.8747 150.736 99.2007Z" fill="white"/>
<path d="M183.712 136.467C183.934 137.134 182.394 136.934 181.625 136.934C181.019 136.957 180.416 136.835 179.867 136.578C179.409 136.343 178.854 136.098 178.736 135.603C177.18 129.158 176.596 126.491 176.556 123.96C176.514 121.154 176.394 119.336 177.045 115.34C177.403 113.154 178.069 111.563 178.334 110.567C178.592 109.601 178.912 108.652 179.292 107.727C179.66 106.825 180.052 105.982 180.467 105.198C180.882 104.414 181.237 103.711 181.534 103.089C181.061 103.089 180.483 103.379 179.8 103.958C179.013 104.643 178.278 105.386 177.6 106.18C176.815 107.087 176 108.089 175.156 109.185C174.312 110.281 173.497 111.372 172.712 112.458C171.926 113.54 171.194 114.555 170.514 115.505C169.834 116.454 169.255 117.211 168.778 117.776C168.135 117.514 167.558 117.112 167.089 116.598C166.598 116.046 166.248 115.382 166.069 114.665C166.226 113.701 166.433 112.745 166.689 111.803C166.977 110.755 167.326 109.726 167.736 108.72C168.204 107.574 168.738 106.455 169.334 105.369C170.041 104.091 170.82 102.855 171.667 101.665C171.223 101.665 170.616 101.969 169.847 102.578C168.956 103.296 168.123 104.083 167.356 104.931C166.467 105.896 165.549 106.979 164.6 108.18C163.652 109.382 162.763 110.561 161.934 111.718C160.837 113.262 159.926 114.612 159.2 115.769C158.474 116.926 157.949 117.61 157.625 117.82C156.943 117.361 156.391 116.733 156.023 115.998C155.713 115.302 155.489 114.571 155.356 113.82C155.409 112.925 155.521 112.034 155.689 111.154C155.894 110.041 156.169 108.942 156.514 107.865C157.217 105.648 158.1 103.493 159.156 101.42C160.237 99.2871 161.283 97.3315 162.292 95.5537C163.078 95.7161 163.835 96.0011 164.534 96.3982C165.307 96.8677 166.017 97.4354 166.645 98.087C166.301 99.1079 165.838 100.085 165.267 100.998C164.645 102.02 163.993 103.094 163.311 104.22C162.63 105.346 162.008 106.502 161.445 107.687C160.898 108.825 160.523 110.038 160.334 111.287C161.165 110.102 162.151 108.739 163.292 107.198C164.432 105.657 165.602 104.206 166.8 102.843C167.891 101.586 169.088 100.426 170.378 99.3759C171.563 98.4278 172.63 97.9537 173.578 97.9537C173.97 97.9595 174.36 98.0193 174.736 98.1315C175.133 98.2435 175.519 98.3923 175.889 98.5759C176.197 98.7259 176.494 98.8967 176.778 99.087C176.943 99.1763 177.081 99.3064 177.18 99.4648C176.925 100.31 176.574 101.122 176.134 101.887C175.587 102.909 175.002 103.983 174.378 105.109C173.754 106.235 173.177 107.324 172.645 108.376C172.111 109.428 171.8 110.265 171.712 110.887C173.165 108.903 174.528 107.103 175.8 105.487C176.929 104.041 178.131 102.654 179.403 101.331C180.345 100.33 181.395 99.4357 182.534 98.6648C183.498 98.0426 184.409 97.7315 185.267 97.7315C185.855 97.73 186.432 97.8915 186.934 98.1982C187.449 98.5033 187.836 98.985 188.023 99.5537C187.671 100.654 187.233 101.724 186.712 102.754C186.104 103.998 185.489 105.309 184.867 106.687C184.245 108.065 183.689 109.42 183.2 110.754C182.711 112.087 182.043 115.214 181.847 116.263C181.134 120.076 181.059 123.981 181.625 127.818" fill="white"/>
<path d="M263.818 135.656C267.023 137.032 255.152 124.1 230.04 121.656C199.152 118.649 145.692 134.383 151.818 133.434C217.818 123.212 238.929 124.989 263.818 135.656Z" fill="white"/>
</svg>
